<svg width="123" height="44" viewBox="0 0 123 44" fill="none" xmlns="http://www.w3.org/2000/svg">
<path d="M35.6727 14.0565C28.1455 7.35856 13.9005 8.66699 3.21788 21.3293C9.11876 12.3185 21.8965 3.86172 31.9265 7.23144C52.0328 16.2643 34.3805 36.627 20.5478 37.9786C33.9696 33.3002 41.4921 19.2347 35.6727 14.0565Z" fill="#2F82F7"/>
<path d="M35.6721 14.0568C41.8597 19.7063 32.8697 33.9556 20.5607 37.9925C29.4937 31.9007 35.8963 20.1769 35.6721 14.0568Z" fill="#2F82F7"/>
<path d="M35.6721 14.0568C41.8597 19.7063 32.8697 33.9556 20.5607 37.9925C29.4937 31.9007 35.8963 20.1769 35.6721 14.0568Z" fill="black" fill-opacity="0.2"/>
<path d="M26.8056 26.8573C20.2154 36.0869 14.5655 36.1073 5.68987 37.4043C5.68987 37.4043 13.678 30.4871 15.4289 26.135L7.81919 22.8478C12.9839 14.84 19.0947 14.6563 29.7469 13.4316C23.9604 17.912 20.2639 20.2163 19.4727 23.6232L26.8056 26.8573Z" fill="#2F82F7"/>
<path d="M5.80525 37.3868C12.7157 33.2361 16.5559 31.0003 17.9775 27.231L15.4356 26.133C13.2562 30.5843 9.89905 32.8433 5.80525 37.3868Z" fill="#2668C6"/>
<path d="M29.7697 13.4177C22.4965 16.3277 18.3678 18.0733 16.7475 22.4303L19.452 23.6231C20.2431 20.2162 23.9833 17.898 29.7697 13.4177Z" fill="#2D2DFF" fill-opacity="0.5"/>
<path d="M29.7697 13.4177C22.4965 16.3277 18.3678 18.0733 16.7475 22.4303L19.452 23.6231C20.2431 20.2162 23.9833 17.898 29.7697 13.4177Z" fill="#2668C6"/>
<path d="M57.4178 30.2006C56.6267 30.2006 55.8913 30.0557 55.2116 29.766C54.543 29.4763 53.9636 29.0751 53.4733 28.5626C52.9941 28.0389 52.6431 27.4316 52.4203 26.7407L54.309 25.9217C54.6098 26.6349 55.0444 27.1976 55.6127 27.6099C56.181 28.011 56.8217 28.2116 57.5348 28.2116C57.936 28.2116 58.2814 28.1503 58.5711 28.0277C58.872 27.894 59.1004 27.7157 59.2564 27.4929C59.4236 27.27 59.5071 27.0026 59.5071 26.6906C59.5071 26.3229 59.3957 26.022 59.1728 25.788C58.9611 25.5429 58.638 25.3534 58.2034 25.2197L55.8133 24.4509C54.8438 24.15 54.114 23.6987 53.6237 23.097C53.1334 22.4953 52.8883 21.7877 52.8883 20.9743C52.8883 20.2611 53.061 19.6316 53.4064 19.0856C53.763 18.5396 54.2533 18.1161 54.8773 17.8153C55.5124 17.5033 56.2367 17.3473 57.0501 17.3473C57.7967 17.3473 58.482 17.481 59.106 17.7484C59.73 18.0047 60.2648 18.3669 60.7106 18.8349C61.1674 19.2917 61.5073 19.8321 61.7301 20.4561L59.8581 21.2919C59.613 20.6679 59.2453 20.1887 58.755 19.8544C58.2647 19.509 57.6964 19.3363 57.0501 19.3363C56.6713 19.3363 56.337 19.4031 56.0473 19.5369C55.7576 19.6594 55.5291 19.8377 55.362 20.0717C55.206 20.2946 55.128 20.562 55.128 20.874C55.128 21.2194 55.2394 21.5259 55.4623 21.7933C55.6851 22.0496 56.025 22.2501 56.4818 22.395L58.7717 23.1137C59.7634 23.4369 60.5044 23.8826 60.9947 24.4509C61.4961 25.0191 61.7468 25.7211 61.7468 26.5569C61.7468 27.27 61.563 27.8996 61.1953 28.4456C60.8276 28.9916 60.3206 29.4206 59.6743 29.7326C59.028 30.0446 58.2758 30.2006 57.4178 30.2006ZM66.2861 30.2006C65.6509 30.2006 65.0994 30.0947 64.6314 29.883C64.1634 29.6713 63.8012 29.3704 63.5449 28.9804C63.2887 28.5793 63.1605 28.1169 63.1605 27.5931C63.1605 27.0917 63.2719 26.646 63.4948 26.256C63.7177 25.8549 64.0631 25.5206 64.5311 25.2531C64.9991 24.9857 65.5897 24.7963 66.3028 24.6849L69.2779 24.2001V25.8716L66.7207 26.3061C66.2861 26.3841 65.9629 26.5234 65.7512 26.724C65.5395 26.9246 65.4337 27.1864 65.4337 27.5096C65.4337 27.8216 65.5507 28.0723 65.7847 28.2617C66.0298 28.44 66.3307 28.5291 66.6872 28.5291C67.1441 28.5291 67.5452 28.4344 67.8907 28.245C68.2472 28.0444 68.5202 27.7714 68.7097 27.426C68.9102 27.0806 69.0105 26.7017 69.0105 26.2894V23.9494C69.0105 23.5594 68.8545 23.2363 68.5425 22.98C68.2417 22.7126 67.8405 22.5789 67.3391 22.5789C66.8711 22.5789 66.4532 22.707 66.0855 22.9633C65.7289 23.2084 65.4671 23.5371 65.2999 23.9494L63.5115 23.0803C63.6898 22.6011 63.9684 22.1889 64.3472 21.8434C64.7372 21.4869 65.1941 21.2083 65.7178 21.0077C66.2415 20.8071 66.8098 20.7069 67.4227 20.7069C68.1692 20.7069 68.8267 20.8461 69.3949 21.1247C69.9632 21.3921 70.4034 21.771 70.7154 22.2613C71.0385 22.7404 71.2001 23.3031 71.2001 23.9494V30H69.1275V28.4456L69.5955 28.4121C69.3615 28.8021 69.0829 29.1309 68.7598 29.3983C68.4367 29.6546 68.0689 29.8551 67.6567 30C67.2444 30.1337 66.7875 30.2006 66.2861 30.2006ZM75.9817 30.2006C75.3465 30.2006 74.795 30.0947 74.327 29.883C73.859 29.6713 73.4968 29.3704 73.2405 28.9804C72.9842 28.5793 72.8561 28.1169 72.8561 27.5931C72.8561 27.0917 72.9675 26.646 73.1904 26.256C73.4132 25.8549 73.7587 25.5206 74.2267 25.2531C74.6947 24.9857 75.2852 24.7963 75.9984 24.6849L78.9735 24.2001V25.8716L76.4162 26.3061C75.9817 26.3841 75.6585 26.5234 75.4468 26.724C75.2351 26.9246 75.1292 27.1864 75.1292 27.5096C75.1292 27.8216 75.2462 28.0723 75.4802 28.2617C75.7254 28.44 76.0262 28.5291 76.3828 28.5291C76.8397 28.5291 77.2408 28.4344 77.5862 28.245C77.9428 28.0444 78.2158 27.7714 78.4052 27.426C78.6058 27.0806 78.7061 26.7017 78.7061 26.2894V23.9494C78.7061 23.5594 78.5501 23.2363 78.2381 22.98C77.9372 22.7126 77.5361 22.5789 77.0347 22.5789C76.5667 22.5789 76.1488 22.707 75.7811 22.9633C75.4245 23.2084 75.1627 23.5371 74.9955 23.9494L73.2071 23.0803C73.3854 22.6011 73.664 22.1889 74.0428 21.8434C74.4328 21.4869 74.8897 21.2083 75.4134 21.0077C75.9371 20.8071 76.5054 20.7069 77.1182 20.7069C77.8648 20.7069 78.5222 20.8461 79.0905 21.1247C79.6588 21.3921 80.099 21.771 80.411 22.2613C80.7341 22.7404 80.8957 23.3031 80.8957 23.9494V30H78.8231V28.4456L79.2911 28.4121C79.0571 28.8021 78.7785 29.1309 78.4554 29.3983C78.1322 29.6546 77.7645 29.8551 77.3522 30C76.94 30.1337 76.4831 30.2006 75.9817 30.2006ZM86.3793 30.2006C85.4098 30.2006 84.563 29.9721 83.8387 29.5153C83.1255 29.0473 82.6353 28.4177 82.3678 27.6266L84.0058 26.841C84.2398 27.3536 84.563 27.7547 84.9753 28.0444C85.3987 28.3341 85.8667 28.479 86.3793 28.479C86.7804 28.479 87.098 28.3899 87.332 28.2116C87.566 28.0333 87.683 27.7993 87.683 27.5096C87.683 27.3313 87.6328 27.1864 87.5325 27.075C87.4434 26.9524 87.3153 26.8521 87.1481 26.7741C86.9921 26.685 86.8194 26.6126 86.63 26.5569L85.1424 26.139C84.3735 25.9161 83.7885 25.5763 83.3874 25.1194C82.9974 24.6626 82.8024 24.1221 82.8024 23.4981C82.8024 22.941 82.9417 22.4563 83.2203 22.044C83.51 21.6206 83.9055 21.2919 84.407 21.0579C84.9195 20.8239 85.5045 20.7069 86.162 20.7069C87.02 20.7069 87.7777 20.913 88.4351 21.3253C89.0925 21.7376 89.5605 22.317 89.8391 23.0636L88.1677 23.8491C88.0117 23.4369 87.7498 23.1081 87.3821 22.863C87.0144 22.6179 86.6021 22.4953 86.1453 22.4953C85.7775 22.4953 85.4878 22.5789 85.2761 22.746C85.0644 22.9131 84.9585 23.1304 84.9585 23.3979C84.9585 23.565 85.0031 23.7099 85.0923 23.8324C85.1814 23.955 85.304 24.0553 85.46 24.1333C85.6271 24.2113 85.8165 24.2837 86.0283 24.3506L87.4824 24.7851C88.229 25.008 88.8028 25.3423 89.204 25.788C89.6163 26.2337 89.8224 26.7797 89.8224 27.426C89.8224 27.972 89.6775 28.4567 89.3878 28.8801C89.0981 29.2924 88.697 29.6156 88.1844 29.8496C87.6718 30.0836 87.0701 30.2006 86.3793 30.2006Z" fill="#2F82F7"/>
<path d="M91.6889 30V17.5479H95.7505C97.0653 17.5479 98.2075 17.8153 99.1769 18.3501C100.157 18.8739 100.915 19.6037 101.45 20.5397C101.985 21.4646 102.252 22.5399 102.252 23.7656C102.252 24.9801 101.985 26.061 101.45 27.0081C100.915 27.9441 100.157 28.6796 99.1769 29.2144C98.2075 29.7381 97.0653 30 95.7505 30H91.6889ZM93.9621 27.9943H95.8006C96.6475 27.9943 97.3773 27.8216 97.9902 27.4761C98.6142 27.1196 99.0989 26.6293 99.4443 26.0053C99.7898 25.3701 99.9625 24.6236 99.9625 23.7656C99.9625 22.8964 99.7898 22.1499 99.4443 21.5259C99.0989 20.9019 98.6142 20.4171 97.9902 20.0717C97.3773 19.7263 96.6475 19.5536 95.8006 19.5536H93.9621V27.9943ZM108.19 30.2006C107.254 30.2006 106.435 29.9889 105.733 29.5654C105.031 29.142 104.485 28.5681 104.095 27.8439C103.705 27.1196 103.51 26.3173 103.51 25.437C103.51 24.5233 103.705 23.7154 104.095 23.0134C104.496 22.3003 105.036 21.7376 105.716 21.3253C106.407 20.913 107.176 20.7069 108.023 20.7069C108.736 20.7069 109.36 20.8239 109.895 21.0579C110.441 21.2919 110.903 21.615 111.282 22.0273C111.661 22.4396 111.951 22.9131 112.151 23.448C112.352 23.9717 112.452 24.54 112.452 25.1529C112.452 25.3089 112.441 25.4704 112.419 25.6376C112.407 25.8047 112.38 25.9496 112.335 26.0721H105.315V24.4007H111.098L110.062 25.1863C110.162 24.6737 110.134 24.2169 109.978 23.8157C109.833 23.4146 109.588 23.097 109.243 22.863C108.909 22.629 108.502 22.512 108.023 22.512C107.566 22.512 107.159 22.629 106.803 22.863C106.446 23.0859 106.173 23.4201 105.984 23.8659C105.805 24.3004 105.738 24.8297 105.783 25.4537C105.738 26.0109 105.811 26.5067 106 26.9413C106.201 27.3647 106.491 27.6934 106.869 27.9274C107.259 28.1614 107.705 28.2784 108.207 28.2784C108.708 28.2784 109.131 28.1726 109.477 27.9609C109.833 27.7491 110.112 27.465 110.313 27.1084L112.084 27.9776C111.906 28.4121 111.627 28.7966 111.249 29.1309C110.87 29.4651 110.418 29.727 109.895 29.9164C109.382 30.1059 108.814 30.2006 108.19 30.2006ZM114.112 30V20.9074H116.168V22.6959L116 22.3783C116.212 21.8323 116.558 21.42 117.037 21.1414C117.527 20.8517 118.095 20.7069 118.742 20.7069C119.41 20.7069 120.001 20.8517 120.513 21.1414C121.037 21.4311 121.444 21.8379 121.733 22.3616C122.023 22.8741 122.168 23.4703 122.168 24.15V30H119.978V24.6681C119.978 24.267 119.9 23.9216 119.744 23.6319C119.588 23.3421 119.371 23.1193 119.093 22.9633C118.825 22.7961 118.508 22.7126 118.14 22.7126C117.783 22.7126 117.466 22.7961 117.187 22.9633C116.909 23.1193 116.691 23.3421 116.535 23.6319C116.379 23.9216 116.301 24.267 116.301 24.6681V30H114.112Z" fill="#2668C6"/>
</svg>
