<svg width="11" height="17" viewBox="0 0 11 17" fill="none" xmlns="http://www.w3.org/2000/svg">
<path d="M5.51856 11.7987C5.22931 11.7987 5.00095 11.7125 4.83349 11.54C4.68125 11.3532 4.60514 11.1089 4.60514 10.807C4.60514 10.3615 4.65842 9.94473 4.76498 9.55669C4.88677 9.15427 5.07707 8.75186 5.33587 8.34944C5.59467 7.94703 5.93721 7.52305 6.36347 7.07752C6.68317 6.73259 6.93436 6.43078 7.11704 6.17209C7.31495 5.89902 7.45196 5.64032 7.52808 5.396C7.61942 5.15167 7.66509 4.90017 7.66509 4.64147C7.66509 4.16719 7.48241 3.79352 7.11704 3.52046C6.75167 3.24739 6.23407 3.11085 5.56423 3.11085C4.95528 3.11085 4.39962 3.1899 3.89723 3.34799C3.41008 3.49171 2.91531 3.7001 2.41293 3.97317C2.078 4.16001 1.77353 4.24624 1.4995 4.23187C1.2407 4.20312 1.02757 4.10971 0.860109 3.95161C0.692649 3.79352 0.586083 3.5995 0.540412 3.36955C0.494741 3.1396 0.5328 2.90246 0.65459 2.65814C0.776379 2.41381 0.997123 2.19105 1.31682 1.98984C1.94099 1.6018 2.6565 1.30717 3.46336 1.10596C4.27021 0.890383 5.0314 0.782593 5.74691 0.782593C6.706 0.782593 7.54331 0.933499 8.25882 1.23531C8.98956 1.53712 9.55283 1.95391 9.94865 2.48567C10.3597 3.01744 10.5652 3.64262 10.5652 4.36122C10.5652 4.80675 10.4967 5.23072 10.3597 5.63314C10.2227 6.02118 10.0019 6.41641 9.69746 6.81882C9.39298 7.20687 8.97433 7.63084 8.4415 8.09074C7.96957 8.49316 7.58898 8.85965 7.29973 9.1902C7.0257 9.52076 6.82018 9.83694 6.68317 10.1388C6.56138 10.4406 6.47765 10.7639 6.43198 11.1089C6.41675 11.3101 6.32541 11.4753 6.15795 11.6047C6.00571 11.734 5.79258 11.7987 5.51856 11.7987ZM5.47289 16.3043C4.95528 16.3043 4.53663 16.1534 4.21693 15.8516C3.91246 15.5498 3.76022 15.1618 3.76022 14.6875C3.76022 14.2276 3.91246 13.8539 4.21693 13.5665C4.53663 13.2647 4.95528 13.1138 5.47289 13.1138C6.00571 13.1138 6.41675 13.2647 6.706 13.5665C7.01048 13.8539 7.16271 14.2276 7.16271 14.6875C7.16271 15.1618 7.01048 15.5498 6.706 15.8516C6.41675 16.1534 6.00571 16.3043 5.47289 16.3043Z" fill="#0C5BC6"/>
</svg>
