<svg width="30" height="28" viewBox="0 0 30 28" fill="none" xmlns="http://www.w3.org/2000/svg">
    <path d="M3.125 11.3333L11.3444 16.8128C12.0442 17.2794 12.9558 17.2794 13.6556 16.8128L21.875 11.3333M5.20833 22.7916H19.7917C20.9423 22.7916 21.875 21.8588 21.875 20.7083V10.2916C21.875 9.14099 20.9423 8.20825 19.7917 8.20825H5.20833C4.05774 8.20825 3.125 9.14099 3.125 10.2916V20.7083C3.125 21.8588 4.05774 22.7916 5.20833 22.7916Z" stroke="#3F3F46" stroke-width="1.2" stroke-linecap="round" stroke-linejoin="round"/>
        <circle cx="21.5" cy="9.5" r="8.5" fill="#4F46E5"/>
    <path d="M18.7243 13H24.2243V11.735H20.6713L22.5963 9.711C23.1169 9.16833 23.4983 8.688 23.7403 8.27C23.9896 7.852 24.1143 7.41933 24.1143 6.972C24.1143 6.51733 24.0006 6.11767 23.7733 5.773C23.5533 5.42833 23.2416 5.16067 22.8383 4.97C22.4423 4.772 21.9803 4.673 21.4523 4.673C21.0123 4.673 20.5943 4.761 20.1983 4.937C19.8096 5.10567 19.4796 5.35133 19.2083 5.674C18.9369 5.98933 18.7573 6.36333 18.6693 6.796L19.9783 7.203C20.0956 6.81433 20.2826 6.521 20.5393 6.323C20.7959 6.11767 21.1003 6.015 21.4523 6.015C21.7896 6.015 22.0646 6.114 22.2773 6.312C22.4973 6.51 22.6073 6.78133 22.6073 7.126C22.6073 7.33133 22.5596 7.533 22.4643 7.731C22.3689 7.929 22.2003 8.16733 21.9583 8.446C21.7163 8.72467 21.3789 9.09133 20.9463 9.546L18.7243 11.878V13Z" fill="white"/>
</svg>