<svg width="14" height="16" viewBox="0 0 14 16" fill="none" xmlns="http://www.w3.org/2000/svg">
<path fill-rule="evenodd" clip-rule="evenodd" d="M0.293031 7.70703C0.105559 7.5195 0.000244141 7.26519 0.000244141 7.00003C0.000244141 6.73487 0.105559 6.48056 0.293031 6.29303L6.29303 0.293031C6.48056 0.105559 6.73487 0.000244141 7.00003 0.000244141C7.26519 0.000244141 7.5195 0.105559 7.70703 0.293031L13.707 6.29303C13.8892 6.48163 13.99 6.73423 13.9877 6.99643C13.9854 7.25863 13.8803 7.50944 13.6948 7.69485C13.5094 7.88026 13.2586 7.98543 12.9964 7.9877C12.7342 7.98998 12.4816 7.88919 12.293 7.70703L8.00003 3.41403V15C8.00003 15.2652 7.89467 15.5196 7.70714 15.7071C7.5196 15.8947 7.26525 16 7.00003 16C6.73481 16 6.48046 15.8947 6.29292 15.7071C6.10539 15.5196 6.00003 15.2652 6.00003 15V3.41403L1.70703 7.70703C1.5195 7.8945 1.26519 7.99982 1.00003 7.99982C0.734866 7.99982 0.480558 7.8945 0.293031 7.70703Z" fill="#5B6871"/>
</svg>
